<svg width="24" height="27" viewBox="0 0 24 27" fill="none" xmlns="http://www.w3.org/2000/svg">
<path d="M19.4341 14.2733C19.4029 10.8903 22.2751 9.2445 22.4064 9.16788C20.7798 6.85554 18.2585 6.53961 17.3725 6.51442C15.255 6.29714 13.2009 7.74983 12.1222 7.74983C11.022 7.74983 9.36089 6.53541 7.5706 6.5711C5.2668 6.60573 3.11156 7.90622 1.92952 9.92571C-0.509926 14.0434 1.30943 20.0945 3.64661 23.4229C4.81573 25.053 6.18186 26.873 7.97 26.809C9.71938 26.7387 10.3728 25.7216 12.4839 25.7216C14.5757 25.7216 15.1893 26.809 17.013 26.7681C18.8904 26.7387 20.0725 25.1306 21.2007 23.4859C22.5518 21.6175 23.0943 19.7775 23.1159 19.6831C23.0717 19.6684 19.4696 18.328 19.4341 14.2733Z" fill="white"/>
<path d="M15.9892 4.32489C16.9301 3.17765 17.5738 1.61685 17.3951 0.032959C16.0333 0.0917382 14.3302 0.951384 13.3495 2.07344C12.4818 3.06219 11.7067 4.68281 11.9069 6.20688C13.4367 6.31814 15.0074 5.45429 15.9892 4.32489Z" fill="white"/>
</svg>
